<svg width="32" height="32" viewBox="0 0 32 32" fill="none" xmlns="http://www.w3.org/2000/svg">
<path d="M16.0003 29.3334C23.3641 29.3334 29.3337 23.3639 29.3337 16.0001C29.3337 8.63628 23.3641 2.66675 16.0003 2.66675C8.63653 2.66675 2.66699 8.63628 2.66699 16.0001C2.66699 23.3639 8.63653 29.3334 16.0003 29.3334Z" fill="#F1FAFF" stroke="#F1FAFF" stroke-width="2.66667" stroke-linecap="round" stroke-linejoin="round"/>
<path d="M18.8337 11.1845C19.1431 10.853 19.5627 10.6667 20.0003 10.6667C20.4379 10.6667 20.8576 10.853 21.167 11.1845C21.4764 11.516 21.6502 11.9657 21.6502 12.4345C21.6502 12.9034 21.4764 13.353 21.167 13.6845L13.7781 21.6012L10.667 22.4345L11.4448 19.1012L18.8337 11.1845Z" stroke="#4B4B4B" stroke-width="2" stroke-linecap="round" stroke-linejoin="round"/>
</svg>
