<svg width="64" height="64" viewBox="0 0 64 64" fill="none" xmlns="http://www.w3.org/2000/svg">
<g filter="url(#filter0_dd_4399_4590)">
<mask id="path-1-inside-1_4399_4590" fill="white">
<path d="M12 22C12 10.9543 20.9543 2 32 2C43.0457 2 52 10.9543 52 22C52 33.0457 43.0457 42 32 42C20.9543 42 12 33.0457 12 22Z"/>
</mask>
<path d="M12 22C12 10.9543 20.9543 2 32 2C43.0457 2 52 10.9543 52 22C52 33.0457 43.0457 42 32 42C20.9543 42 12 33.0457 12 22Z" fill="white" shape-rendering="crispEdges"/>
<path d="M12 22M52 22M52 22M12 22M32 2M52 22M32 42M12 22M32 42V41C21.5066 41 13 32.4934 13 22H12H11C11 33.598 20.402 43 32 43V42ZM52 22H51C51 32.4934 42.4934 41 32 41V42V43C43.598 43 53 33.598 53 22H52ZM32 2V3C42.4934 3 51 11.5066 51 22H52H53C53 10.402 43.598 1 32 1V2ZM32 2V1C20.402 1 11 10.402 11 22H12H13C13 11.5066 21.5066 3 32 3V2Z" fill="#E5E7EB" mask="url(#path-1-inside-1_4399_4590)"/>
<path d="M32 13.6667V30.3334" stroke="#0078C8" stroke-width="2.08333" stroke-linecap="round" stroke-linejoin="round"/>
<path d="M34.5 27.8333L32 30.3333L29.5 27.8333" stroke="#0078C8" stroke-width="2.08333" stroke-linecap="round" stroke-linejoin="round"/>
<path d="M37.833 19.5L40.333 22L37.833 24.5" stroke="#0078C8" stroke-width="2.08333" stroke-linecap="round" stroke-linejoin="round"/>
<path d="M23.667 22H40.3337" stroke="#0078C8" stroke-width="2.08333" stroke-linecap="round" stroke-linejoin="round"/>
<path d="M26.167 19.5L23.667 22L26.167 24.5" stroke="#0078C8" stroke-width="2.08333" stroke-linecap="round" stroke-linejoin="round"/>
<path d="M29.5 16.1667L32 13.6667L34.5 16.1667" stroke="#0078C8" stroke-width="2.08333" stroke-linecap="round" stroke-linejoin="round"/>
</g>
<defs>
<filter id="filter0_dd_4399_4590" x="0" y="0" width="64" height="64" filterUnits="userSpaceOnUse" color-interpolation-filters="sRGB">
<feFlood flood-opacity="0" result="BackgroundImageFix"/>
<feColorMatrix in="SourceAlpha" type="matrix" values="0 0 0 0 0 0 0 0 0 0 0 0 0 0 0 0 0 0 127 0" result="hardAlpha"/>
<feMorphology radius="4" operator="erode" in="SourceAlpha" result="effect1_dropShadow_4399_4590"/>
<feOffset dy="4"/>
<feGaussianBlur stdDeviation="3"/>
<feComposite in2="hardAlpha" operator="out"/>
<feColorMatrix type="matrix" values="0 0 0 0 0 0 0 0 0 0 0 0 0 0 0 0 0 0 0.1 0"/>
<feBlend mode="normal" in2="BackgroundImageFix" result="effect1_dropShadow_4399_4590"/>
<feColorMatrix in="SourceAlpha" type="matrix" values="0 0 0 0 0 0 0 0 0 0 0 0 0 0 0 0 0 0 127 0" result="hardAlpha"/>
<feMorphology radius="3" operator="erode" in="SourceAlpha" result="effect2_dropShadow_4399_4590"/>
<feOffset dy="10"/>
<feGaussianBlur stdDeviation="7.5"/>
<feComposite in2="hardAlpha" operator="out"/>
<feColorMatrix type="matrix" values="0 0 0 0 0 0 0 0 0 0 0 0 0 0 0 0 0 0 0.1 0"/>
<feBlend mode="normal" in2="effect1_dropShadow_4399_4590" result="effect2_dropShadow_4399_4590"/>
<feBlend mode="normal" in="SourceGraphic" in2="effect2_dropShadow_4399_4590" result="shape"/>
</filter>
</defs>
</svg>
